<?xml version="1.0" standalone="no"?>
<!DOCTYPE svg PUBLIC "-//W3C//DTD SVG 20010904//EN"
 "http://www.w3.org/TR/2001/REC-SVG-20010904/DTD/svg10.dtd">
<svg version="1.0" xmlns="http://www.w3.org/2000/svg"
 width="1024.000000pt" height="1024.000000pt" viewBox="0 0 1024.000000 1024.000000"
 preserveAspectRatio="xMidYMid meet">

<g transform="translate(0.000000,1024.000000) scale(0.100000,-0.100000)"
fill="#000000" stroke="none">
<path d="M0 5120 l0 -5120 5120 0 5120 0 0 5120 0 5120 -5120 0 -5120 0 0
-5120z m7005 2814 c152 -26 302 -87 405 -166 54 -41 57 -42 265 -80 329 -60
481 -108 611 -193 58 -39 184 -157 184 -174 0 -5 -39 -12 -87 -16 -176 -13
-491 -46 -593 -61 -270 -39 -390 -104 -456 -248 -58 -128 -56 -249 10 -549 53
-237 66 -334 66 -477 0 -274 -61 -519 -197 -792 -204 -407 -461 -699 -907
-1028 l-123 -91 -33 -112 c-18 -62 -53 -170 -77 -240 -51 -148 -59 -113 65
-287 193 -269 450 -552 544 -598 85 -42 162 -46 356 -21 123 15 191 11 247
-15 83 -38 151 -130 169 -224 l6 -34 -53 32 c-122 73 -178 95 -259 98 -43 2
-78 2 -78 -1 0 -3 9 -24 20 -48 18 -41 27 -109 14 -109 -3 0 -20 11 -38 25
-48 36 -191 100 -266 119 -109 26 -293 39 -475 33 -93 -3 -178 -8 -187 -12
-15 -6 -14 -10 6 -40 23 -34 41 -108 31 -126 -3 -5 -16 0 -28 11 -36 34 -121
71 -185 80 -34 4 -328 6 -654 3 -550 -4 -597 -6 -647 -24 -30 -10 -56 -17 -58
-15 -7 6 17 58 43 91 41 54 96 75 195 75 132 1 283 16 307 31 25 16 35 41 34
82 -2 59 -232 429 -383 615 -131 161 -143 183 -147 266 -3 44 2 94 12 132 9
34 16 63 16 65 0 6 -264 -9 -379 -21 -147 -15 -305 -52 -401 -94 -47 -20 -191
-108 -348 -212 -623 -415 -1029 -628 -1281 -674 -156 -28 -331 -6 -476 59
l-68 31 164 112 c90 61 384 269 653 461 l489 350 141 24 c1066 183 1888 434
2558 780 298 154 507 302 684 485 125 129 177 201 234 321 58 120 74 192 74
327 0 189 -53 319 -184 451 -82 83 -188 144 -305 175 -72 19 -295 31 -320 17
-13 -8 0 -11 51 -16 150 -12 307 -87 399 -190 103 -114 163 -300 150 -461 -18
-223 -100 -380 -301 -578 -203 -200 -466 -375 -816 -542 -626 -300 -1756 -621
-2623 -745 -236 -33 -262 -36 -245 -19 8 8 80 75 160 149 322 298 606 574
1245 1209 858 854 906 897 1304 1175 251 175 395 306 490 445 34 49 117 195
186 325 173 328 255 441 392 543 199 146 406 187 698 136z"/>
<path d="M5188 3767 c-42 -67 -100 -153 -128 -191 l-51 -68 55 -99 c136 -243
295 -480 380 -569 78 -82 81 -82 312 -82 195 -1 203 0 234 22 24 17 55 25 119
32 158 17 174 21 190 49 36 65 -32 169 -278 421 -119 122 -172 170 -235 207
-81 50 -124 87 -145 128 -15 30 -14 132 2 179 8 22 17 51 21 67 l6 27 -202 0
-203 -1 -77 -122z"/>
</g>
</svg>
